<svg id="svg" version="1.1" xmlns="http://www.w3.org/2000/svg" xmlns:xlink="http://www.w3.org/1999/xlink" width="400" height="300" viewBox="0, 0, 400,300"><g id="svgg"><path id="path0" d="M105.672 33.353 L 85.221 53.802 85.232 96.894 L 85.243 139.985 87.643 142.236 C 88.963 143.473,91.788 146.174,93.920 148.237 C 96.052 150.300,98.892 153.001,100.231 154.239 C 101.571 155.476,104.390 158.177,106.496 160.240 C 108.601 162.303,111.102 164.666,112.052 165.491 C 113.721 166.940,114.079 167.279,114.826 168.107 C 115.018 168.319,116.941 170.180,119.100 172.243 C 121.259 174.306,124.601 177.513,126.526 179.370 L 130.026 182.746 135.363 182.746 C 138.597 182.746,140.773 182.627,140.885 182.446 C 140.994 182.270,142.739 182.146,145.104 182.146 L 149.137 182.146 149.137 183.196 L 149.137 184.246 117.479 184.246 L 85.821 184.246 85.823 214.929 L 85.825 245.611 90.206 249.812 C 92.615 252.123,97.334 256.714,100.693 260.015 C 104.052 263.316,108.232 267.367,109.982 269.017 C 111.732 270.668,116.620 275.428,120.844 279.595 L 128.525 287.172 201.284 287.172 L 274.044 287.172 276.632 284.422 C 278.055 282.910,283.878 276.975,289.572 271.233 C 299.545 261.177,306.131 254.457,312.003 248.347 L 314.779 245.459 314.779 201.776 L 314.779 158.093 313.953 157.265 C 313.500 156.809,312.858 156.064,312.528 155.609 C 312.198 155.154,311.320 154.130,310.578 153.333 C 309.835 152.537,308.620 151.191,307.877 150.343 C 307.134 149.495,306.189 148.421,305.776 147.957 C 304.681 146.725,302.106 143.788,300.778 142.255 C 300.144 141.523,299.287 140.550,298.875 140.092 C 297.005 138.021,294.490 135.247,294.149 134.880 C 293.942 134.658,293.773 134.385,293.773 134.274 C 293.773 134.162,292.963 133.278,291.973 132.309 C 290.983 131.340,290.173 130.467,290.173 130.369 C 290.173 130.270,290.004 130.005,289.797 129.780 C 289.591 129.555,288.612 128.464,287.622 127.357 C 286.632 126.249,285.383 124.869,284.846 124.291 C 284.310 123.712,283.871 123.134,283.871 123.005 C 283.871 122.876,283.608 122.688,283.286 122.586 C 282.965 122.483,282.618 122.138,282.517 121.818 C 282.415 121.498,281.520 120.403,280.527 119.385 C 279.534 118.367,278.514 117.218,278.261 116.832 L 277.800 116.129 295.089 116.129 L 312.378 116.129 312.378 85.207 L 312.378 54.284 301.950 43.790 C 296.215 38.018,291.361 33.130,291.162 32.927 C 290.964 32.724,290.626 32.396,290.412 32.197 C 290.198 31.999,289.860 31.661,289.662 31.447 C 289.463 31.233,289.126 30.895,288.912 30.697 C 288.697 30.499,288.360 30.161,288.161 29.947 C 287.963 29.733,287.625 29.395,287.411 29.197 C 287.197 28.998,286.857 28.661,286.655 28.446 C 286.453 28.232,286.146 27.922,285.972 27.757 C 285.798 27.592,284.950 26.707,284.088 25.790 C 283.226 24.874,280.065 21.599,277.063 18.514 L 271.605 12.903 198.864 12.903 L 126.123 12.903 105.672 33.353 M272.479 24.831 C 275.021 27.431,281.899 34.426,287.763 40.376 C 293.627 46.327,299.877 52.688,301.652 54.512 L 304.880 57.828 304.803 83.153 L 304.726 108.477 275.244 108.554 L 245.761 108.630 245.761 91.374 L 245.761 74.119 243.961 74.119 L 242.161 74.119 242.161 96.621 L 242.161 119.124 256.175 119.202 L 270.189 119.280 282.957 133.733 C 289.979 141.682,296.546 149.109,297.550 150.237 C 298.554 151.365,301.153 154.294,303.326 156.745 L 307.277 161.202 307.277 201.740 L 307.277 242.278 301.050 248.595 C 297.626 252.069,291.162 258.625,286.687 263.165 C 282.212 267.704,276.718 273.308,274.477 275.619 L 270.403 279.820 201.699 279.897 C 163.912 279.939,132.720 279.872,132.383 279.747 C 132.046 279.622,129.532 277.328,126.796 274.648 C 124.060 271.969,119.629 267.646,116.950 265.041 C 114.270 262.436,107.858 256.202,102.701 251.188 L 93.323 242.070 93.323 216.759 L 93.323 191.448 123.781 191.448 L 154.239 191.448 154.239 208.702 L 154.239 225.956 156.339 225.956 L 158.440 225.956 158.440 200.900 L 158.440 175.844 145.784 175.844 L 133.128 175.844 128.755 171.552 C 126.349 169.192,121.818 164.770,118.686 161.725 C 115.554 158.680,110.558 153.815,107.583 150.913 C 104.609 148.010,100.049 143.567,97.449 141.037 L 92.723 136.438 92.723 96.807 L 92.723 57.176 111.250 38.640 L 129.776 20.105 198.816 20.105 L 267.856 20.105 272.479 24.831 M153.111 96.549 L 153.188 118.980 155.739 118.980 L 158.290 118.980 158.367 96.549 L 158.443 74.119 155.739 74.119 L 153.034 74.119 153.111 96.549 M198.500 76.754 C 199.985 78.200,203.833 81.876,207.052 84.924 C 210.270 87.972,214.025 91.546,215.395 92.867 C 216.766 94.187,218.082 95.377,218.321 95.511 C 218.696 95.721,218.755 94.284,218.755 84.936 L 218.755 74.119 207.277 74.122 L 195.799 74.125 198.500 76.754 M181.545 107.727 L 181.545 119.130 193.548 119.130 C 200.150 119.130,205.551 119.013,205.551 118.870 C 205.551 118.728,204.572 117.692,203.376 116.568 C 202.179 115.445,199.175 112.618,196.699 110.288 C 183.721 98.070,181.846 96.324,181.702 96.324 C 181.616 96.324,181.545 101.455,181.545 107.727 M241.790 184.771 L 241.710 193.698 229.857 193.698 L 218.005 193.698 217.854 188.597 L 217.704 183.496 200.300 183.496 L 182.896 183.496 182.896 200.750 L 182.896 218.005 200.300 218.005 L 217.704 218.005 217.854 210.803 L 218.005 203.601 229.688 203.522 C 238.835 203.461,241.423 203.526,241.611 203.822 C 241.743 204.031,241.853 209.096,241.856 215.079 L 241.860 225.956 244.411 225.956 L 246.962 225.956 246.962 200.900 L 246.962 175.844 244.416 175.844 L 241.869 175.844 241.790 184.771 M209.752 199.700 L 209.752 209.752 200.000 209.752 L 190.248 209.752 190.248 199.700 L 190.248 189.647 200.000 189.647 L 209.752 189.647 209.752 199.700 " stroke="none" fill="#040404" fill-rule="evenodd"></path><path id="path1" d="M111.402 38.786 L 93.023 57.166 93.023 96.810 L 93.023 136.453 103.751 146.910 C 109.651 152.661,116.774 159.616,119.580 162.364 C 122.386 165.113,126.572 169.199,128.882 171.445 L 133.083 175.529 145.761 175.536 L 158.440 175.544 158.440 200.900 L 158.440 226.257 156.664 226.257 C 155.687 226.257,154.674 226.175,154.413 226.074 C 153.988 225.911,153.938 224.098,153.938 208.670 L 153.938 191.448 123.781 191.448 L 93.623 191.448 93.623 216.929 C 93.623 231.666,93.737 242.453,93.892 242.511 C 94.131 242.600,104.098 252.241,118.980 266.778 C 121.785 269.519,125.904 273.538,128.132 275.710 L 132.183 279.659 201.211 279.664 L 270.238 279.670 283.289 266.392 C 290.468 259.089,298.734 250.670,301.659 247.683 L 306.977 242.252 306.977 201.701 L 306.977 161.150 302.413 155.969 C 299.903 153.119,297.775 150.720,297.684 150.638 C 297.593 150.555,296.575 149.407,295.421 148.087 C 294.267 146.767,293.249 145.619,293.159 145.536 C 293.068 145.454,288.357 140.120,282.688 133.683 C 277.020 127.247,271.766 121.339,271.011 120.555 L 269.640 119.130 255.748 119.130 L 241.857 119.130 241.934 96.549 L 242.011 73.968 243.811 73.968 L 245.611 73.968 245.761 91.223 L 245.911 108.477 275.169 108.477 L 304.426 108.477 304.503 83.062 L 304.580 57.646 292.492 45.402 C 285.843 38.668,277.583 30.289,274.135 26.782 L 267.866 20.405 198.823 20.405 L 129.781 20.405 111.402 38.786 M271.268 33.833 C 274.792 37.423,282.174 44.888,287.674 50.423 L 297.674 60.486 297.674 80.955 L 297.674 101.425 275.019 101.425 L 252.363 101.425 252.363 84.178 L 252.363 66.931 247.187 66.849 L 242.011 66.767 241.927 62.941 L 241.843 59.115 230.449 59.115 L 219.055 59.115 219.055 62.541 C 219.055 64.426,218.973 66.181,218.873 66.442 C 218.710 66.866,217.057 66.917,203.301 66.917 L 187.912 66.917 183.841 63.016 L 179.770 59.115 169.114 59.115 L 158.458 59.115 158.374 62.941 L 158.290 66.767 152.138 66.917 L 145.986 67.067 145.910 96.292 C 145.855 117.369,145.926 125.628,146.167 125.918 C 146.420 126.223,147.918 126.339,152.395 126.400 L 158.290 126.482 158.373 130.458 L 158.457 134.434 169.819 134.434 C 179.903 134.434,181.202 134.380,181.363 133.959 C 181.463 133.698,181.545 131.875,181.545 129.908 L 181.545 126.332 197.699 126.332 L 213.853 126.332 218.179 130.376 L 222.506 134.421 232.174 134.427 L 241.843 134.434 241.927 130.458 L 242.011 126.482 254.464 126.410 L 266.917 126.339 283.496 145.124 L 300.075 163.909 300.075 201.582 L 300.075 239.255 297.005 242.433 C 295.316 244.181,287.931 251.722,280.593 259.190 L 267.251 272.768 201.217 272.765 L 135.184 272.761 132.633 270.300 C 131.230 268.947,127.922 265.736,125.281 263.165 C 122.641 260.595,115.990 254.123,110.503 248.784 L 100.525 239.076 100.525 218.863 L 100.525 198.650 124.081 198.650 L 147.637 198.650 147.637 215.904 L 147.637 233.158 154.914 233.166 L 162.191 233.175 166.392 236.943 C 168.702 239.015,171.119 241.104,171.763 241.586 L 172.933 242.461 200.680 242.461 L 228.426 242.461 230.861 240.135 C 232.201 238.856,234.355 236.797,235.648 235.559 L 237.999 233.308 246.006 233.158 L 254.014 233.008 254.096 201.500 C 254.141 184.171,254.105 169.689,254.015 169.317 L 253.852 168.642 246.150 168.642 L 238.447 168.642 233.590 163.841 L 228.733 159.040 200.662 159.040 L 172.592 159.040 170.992 160.480 C 170.112 161.272,167.672 163.432,165.570 165.281 L 161.748 168.642 148.916 168.639 L 136.084 168.635 133.834 166.463 C 128.002 160.834,109.158 142.493,104.801 138.205 L 99.925 133.405 99.925 96.786 L 99.925 60.167 116.353 43.737 L 132.781 27.307 198.821 27.307 L 264.861 27.307 271.268 33.833 M178.695 65.623 C 179.355 66.229,181.181 67.950,182.752 69.447 C 184.323 70.943,186.821 73.311,188.303 74.709 C 189.785 76.106,192.281 78.469,193.850 79.960 C 197.918 83.825,202.910 88.563,205.701 91.207 C 208.067 93.448,218.002 102.866,221.703 106.376 C 222.748 107.367,223.693 108.177,223.804 108.177 C 223.915 108.177,224.074 98.387,224.156 86.422 L 224.306 64.666 230.383 64.585 L 236.459 64.504 236.459 96.768 L 236.459 129.032 230.533 129.027 L 224.606 129.023 220.105 124.778 C 217.629 122.444,214.659 119.640,213.503 118.546 C 212.348 117.453,206.947 112.383,201.500 107.279 C 196.054 102.176,190.720 97.178,189.647 96.172 C 187.332 94.002,182.734 89.666,178.989 86.122 L 176.294 83.571 176.139 106.227 C 176.054 118.687,175.953 128.919,175.914 128.963 C 175.876 129.008,173.110 129.008,169.767 128.963 L 163.691 128.882 163.614 97.074 C 163.571 79.580,163.601 65.098,163.679 64.891 C 163.788 64.606,165.464 64.517,170.658 64.519 L 177.494 64.521 178.695 65.623 M158.366 96.549 L 158.443 119.130 155.741 119.130 L 153.038 119.130 153.038 96.462 L 153.038 73.795 155.664 73.882 L 158.290 73.968 158.366 96.549 M218.983 84.996 C 219.033 91.962,218.955 96.024,218.772 96.024 C 218.506 96.024,215.982 93.699,209.152 87.162 C 207.749 85.819,204.140 82.385,201.131 79.532 C 198.122 76.678,195.734 74.224,195.824 74.077 C 195.917 73.928,201.014 73.846,207.447 73.890 L 218.905 73.968 218.983 84.996 M185.296 99.343 C 188.023 101.920,193.234 106.826,193.724 107.277 C 199.026 112.158,205.851 118.690,205.851 118.882 C 205.851 119.022,200.349 119.101,193.623 119.058 L 181.395 118.980 181.317 107.878 C 181.218 93.991,180.733 95.031,185.296 99.343 M231.413 169.456 L 236.459 174.471 236.459 181.459 L 236.459 188.447 229.865 188.447 L 223.270 188.447 223.188 183.271 L 223.106 178.095 200.225 178.018 L 177.344 177.941 177.344 200.750 L 177.344 223.560 200.225 223.483 L 223.106 223.406 223.186 216.279 L 223.267 209.152 229.863 209.152 L 236.459 209.152 236.459 218.091 L 236.459 227.030 231.413 232.045 L 226.367 237.059 200.560 237.059 L 174.754 237.059 169.297 232.249 L 163.841 227.439 163.841 200.804 L 163.841 174.168 165.116 172.942 C 165.818 172.267,168.258 170.078,170.538 168.078 L 174.685 164.441 200.526 164.441 L 226.367 164.441 231.413 169.456 M246.962 200.912 L 246.962 226.280 244.336 226.193 L 241.710 226.107 241.632 214.929 L 241.553 203.751 229.859 203.751 L 218.165 203.751 218.085 210.878 L 218.005 218.005 200.300 218.005 L 182.596 218.005 182.518 200.934 C 182.462 188.576,182.534 183.751,182.780 183.455 C 183.248 182.890,217.232 182.843,217.794 183.406 C 218.046 183.657,218.155 185.287,218.155 188.811 L 218.155 193.856 229.782 193.777 L 241.410 193.698 241.486 184.996 C 241.578 174.510,241.259 175.544,244.402 175.544 L 246.962 175.544 246.962 200.912 " stroke="none" fill="#faf7f7" fill-rule="evenodd"></path><path id="path2" d="M111.327 38.635 L 92.873 57.164 111.329 38.785 L 129.784 20.405 198.797 20.405 L 267.809 20.405 272.014 24.531 L 276.219 28.657 272.022 24.381 L 267.825 20.105 198.803 20.105 L 129.781 20.105 111.327 38.635 M116.353 43.737 L 99.925 60.167 99.925 96.786 L 99.925 133.405 104.801 138.205 C 109.158 142.493,128.002 160.834,133.834 166.463 L 136.084 168.635 148.916 168.639 L 161.748 168.642 165.570 165.281 C 167.672 163.432,170.112 161.272,170.992 160.480 L 172.592 159.040 200.662 159.040 L 228.733 159.040 233.590 163.841 L 238.447 168.642 246.150 168.642 L 253.852 168.642 254.015 169.317 C 254.105 169.689,254.141 184.171,254.096 201.500 L 254.014 233.008 246.006 233.158 L 237.999 233.308 235.648 235.559 C 234.355 236.797,232.201 238.856,230.861 240.135 L 228.426 242.461 200.680 242.461 L 172.933 242.461 171.763 241.586 C 171.119 241.104,168.702 239.015,166.392 236.943 L 162.191 233.175 154.914 233.166 L 147.637 233.158 147.637 215.904 L 147.637 198.650 124.081 198.650 L 100.525 198.650 100.525 218.863 L 100.525 239.076 110.503 248.784 C 115.990 254.123,122.641 260.595,125.281 263.165 C 127.922 265.736,131.230 268.947,132.633 270.300 L 135.184 272.761 201.217 272.765 L 267.251 272.768 280.593 259.190 C 287.931 251.722,295.316 244.181,297.005 242.433 L 300.075 239.255 300.075 201.582 L 300.075 163.909 283.496 145.124 L 266.917 126.339 254.464 126.410 L 242.011 126.482 241.927 130.458 L 241.843 134.434 232.174 134.427 L 222.506 134.421 218.179 130.376 L 213.853 126.332 197.699 126.332 L 181.545 126.332 181.545 129.908 C 181.545 131.875,181.463 133.698,181.363 133.959 C 181.202 134.380,179.903 134.434,169.819 134.434 L 158.457 134.434 158.373 130.458 L 158.290 126.482 152.395 126.400 C 147.918 126.339,146.420 126.223,146.167 125.918 C 145.926 125.628,145.855 117.369,145.910 96.292 L 145.986 67.067 152.138 66.917 L 158.290 66.767 158.374 62.941 L 158.458 59.115 169.114 59.115 L 179.770 59.115 183.841 63.016 L 187.912 66.917 203.301 66.917 C 217.057 66.917,218.710 66.866,218.873 66.442 C 218.973 66.181,219.055 64.426,219.055 62.541 L 219.055 59.115 230.449 59.115 L 241.843 59.115 241.927 62.941 L 242.011 66.767 247.187 66.849 L 252.363 66.931 252.363 84.178 L 252.363 101.425 275.019 101.425 L 297.674 101.425 297.674 80.955 L 297.674 60.486 287.674 50.423 C 282.174 44.888,274.792 37.423,271.268 33.833 L 264.861 27.307 198.821 27.307 L 132.781 27.307 116.353 43.737 M287.322 40.210 C 291.445 44.336,294.887 47.712,294.969 47.712 C 295.052 47.712,291.745 44.336,287.622 40.210 C 283.498 36.084,280.057 32.708,279.974 32.708 C 279.892 32.708,283.198 36.084,287.322 40.210 M303.063 56.189 C 303.799 56.973,304.440 57.614,304.489 57.614 C 304.714 57.614,304.476 57.345,303.151 56.101 L 301.725 54.764 303.063 56.189 M92.797 96.779 L 92.723 136.394 96.249 139.840 L 99.775 143.286 96.400 139.831 L 93.025 136.377 92.948 96.771 L 92.871 57.164 92.797 96.779 M304.576 83.181 C 304.494 97.160,304.528 108.495,304.653 108.370 C 304.778 108.246,304.845 96.808,304.803 82.954 L 304.726 57.764 304.576 83.181 M163.679 64.891 C 163.601 65.098,163.571 79.580,163.614 97.074 L 163.691 128.882 169.767 128.963 C 173.110 129.008,175.876 129.008,175.914 128.963 C 175.953 128.919,176.054 118.687,176.139 106.227 L 176.294 83.571 178.989 86.122 C 182.734 89.666,187.332 94.002,189.647 96.172 C 190.720 97.178,196.054 102.176,201.500 107.279 C 206.947 112.383,212.348 117.453,213.503 118.546 C 214.659 119.640,217.629 122.444,220.105 124.778 L 224.606 129.023 230.533 129.027 L 236.459 129.032 236.459 96.768 L 236.459 64.504 230.383 64.585 L 224.306 64.666 224.156 86.422 C 224.074 98.387,223.915 108.177,223.804 108.177 C 223.693 108.177,222.748 107.367,221.703 106.376 C 218.002 102.866,208.067 93.448,205.701 91.207 C 202.910 88.563,197.918 83.825,193.850 79.960 C 192.281 78.469,189.785 76.106,188.303 74.709 C 186.821 73.311,184.323 70.943,182.752 69.447 C 181.181 67.950,179.355 66.229,178.695 65.623 L 177.494 64.521 170.658 64.519 C 165.464 64.517,163.788 64.606,163.679 64.891 M154.323 74.039 C 155.112 74.101,156.327 74.101,157.023 74.038 C 157.720 73.975,157.074 73.924,155.589 73.925 C 154.104 73.926,153.534 73.977,154.323 74.039 M195.834 74.062 C 195.748 74.200,196.718 75.316,197.989 76.541 L 200.300 78.770 198.057 76.444 L 195.814 74.119 207.284 74.119 L 218.755 74.119 218.755 84.939 C 218.755 93.042,218.668 95.706,218.408 95.545 C 218.194 95.413,218.143 95.463,218.276 95.678 C 218.962 96.788,219.057 95.347,218.983 84.996 L 218.905 73.968 207.447 73.890 C 201.145 73.847,195.919 73.924,195.834 74.062 M241.999 74.194 C 241.920 74.400,241.891 84.629,241.935 96.924 L 242.014 119.280 242.087 96.714 L 242.161 74.148 243.886 74.040 L 245.611 73.932 243.877 73.875 C 242.720 73.837,242.094 73.944,241.999 74.194 M203.601 81.920 C 204.913 83.241,206.055 84.321,206.137 84.321 C 206.220 84.321,205.214 83.241,203.901 81.920 C 202.588 80.600,201.447 79.520,201.364 79.520 C 201.282 79.520,202.288 80.600,203.601 81.920 M209.002 87.022 C 210.149 88.177,211.154 89.122,211.237 89.122 C 211.319 89.122,210.449 88.177,209.302 87.022 C 208.156 85.866,207.150 84.921,207.068 84.921 C 206.985 84.921,207.856 85.866,209.002 87.022 M215.304 93.023 C 216.450 94.179,217.456 95.124,217.538 95.124 C 217.621 95.124,216.750 94.179,215.604 93.023 C 214.457 91.868,213.452 90.923,213.369 90.923 C 213.287 90.923,214.157 91.868,215.304 93.023 M181.382 96.400 C 181.303 96.607,181.275 101.772,181.320 107.878 L 181.403 118.980 181.474 107.634 C 181.527 99.150,181.633 96.343,181.892 96.503 C 182.106 96.635,182.157 96.585,182.024 96.370 C 181.748 95.923,181.562 95.932,181.382 96.400 M185.146 99.475 C 186.210 100.548,187.147 101.425,187.229 101.425 C 187.312 101.425,186.510 100.548,185.446 99.475 C 184.383 98.402,183.446 97.524,183.363 97.524 C 183.281 97.524,184.083 98.402,185.146 99.475 M189.797 103.826 C 190.777 104.816,191.647 105.626,191.729 105.626 C 191.812 105.626,191.077 104.816,190.098 103.826 C 189.118 102.836,188.248 102.026,188.166 102.026 C 188.083 102.026,188.818 102.836,189.797 103.826 M195.036 108.702 C 195.772 109.486,196.413 110.128,196.462 110.128 C 196.687 110.128,196.449 109.858,195.124 108.615 L 193.698 107.277 195.036 108.702 M199.550 112.978 C 200.613 114.051,201.551 114.929,201.633 114.929 C 201.716 114.929,200.913 114.051,199.850 112.978 C 198.787 111.905,197.849 111.028,197.767 111.028 C 197.684 111.028,198.487 111.905,199.550 112.978 M204.215 117.343 C 205.032 118.258,205.763 118.962,205.837 118.907 C 205.912 118.853,205.243 118.104,204.350 117.244 L 202.728 115.679 204.215 117.343 M270.955 120.405 C 271.691 121.189,272.332 121.830,272.381 121.830 C 272.606 121.830,272.368 121.561,271.043 120.318 L 269.617 118.980 270.955 120.405 M273.368 123.181 C 273.928 123.758,274.454 124.231,274.536 124.231 C 274.619 124.231,274.228 123.758,273.668 123.181 C 273.109 122.603,272.583 122.131,272.500 122.131 C 272.418 122.131,272.808 122.603,273.368 123.181 M274.869 124.925 C 274.869 124.977,275.308 125.416,275.844 125.900 L 276.819 126.782 275.938 125.806 C 275.116 124.897,274.869 124.693,274.869 124.925 M277.869 128.282 C 278.429 128.860,278.955 129.332,279.037 129.332 C 279.120 129.332,278.729 128.860,278.170 128.282 C 277.610 127.704,277.084 127.232,277.002 127.232 C 276.919 127.232,277.310 127.704,277.869 128.282 M279.370 130.026 C 279.370 130.078,279.809 130.517,280.345 131.002 L 281.320 131.883 280.439 130.908 C 279.617 129.999,279.370 129.795,279.370 130.026 M282.371 133.383 C 282.930 133.961,283.456 134.434,283.539 134.434 C 283.621 134.434,283.231 133.961,282.671 133.383 C 282.111 132.806,281.585 132.333,281.503 132.333 C 281.420 132.333,281.811 132.806,282.371 133.383 M284.771 136.084 C 285.331 136.662,285.857 137.134,285.939 137.134 C 286.022 137.134,285.631 136.662,285.071 136.084 C 284.511 135.506,283.986 135.034,283.903 135.034 C 283.821 135.034,284.211 135.506,284.771 136.084 M286.872 138.485 C 287.432 139.062,287.957 139.535,288.040 139.535 C 288.122 139.535,287.732 139.062,287.172 138.485 C 286.612 137.907,286.086 137.434,286.004 137.434 C 285.921 137.434,286.312 137.907,286.872 138.485 M289.272 141.185 C 289.832 141.763,290.358 142.236,290.440 142.236 C 290.523 142.236,290.132 141.763,289.572 141.185 C 289.013 140.608,288.487 140.135,288.404 140.135 C 288.322 140.135,288.712 140.608,289.272 141.185 M290.773 142.930 C 290.773 142.981,291.212 143.420,291.748 143.905 L 292.723 144.786 291.842 143.811 C 291.020 142.902,290.773 142.698,290.773 142.930 M107.877 151.238 C 110.183 153.548,112.137 155.439,112.220 155.439 C 112.303 155.439,110.483 153.548,108.177 151.238 C 105.871 148.927,103.917 147.037,103.834 147.037 C 103.751 147.037,105.571 148.927,107.877 151.238 M295.274 148.031 C 295.274 148.083,295.713 148.521,296.249 149.006 L 297.224 149.887 296.343 148.912 C 295.521 148.003,295.274 147.799,295.274 148.031 M297.974 151.032 C 297.974 151.083,298.413 151.522,298.950 152.007 L 299.925 152.888 299.044 151.913 C 298.222 151.004,297.974 150.800,297.974 151.032 M300.075 153.432 C 300.075 153.484,300.514 153.923,301.050 154.407 L 302.026 155.289 301.144 154.314 C 300.323 153.405,300.075 153.200,300.075 153.432 M303.376 157.089 C 303.936 157.667,304.461 158.140,304.544 158.140 C 304.626 158.140,304.236 157.667,303.676 157.089 C 303.116 156.512,302.590 156.039,302.508 156.039 C 302.425 156.039,302.816 156.512,303.376 157.089 M118.230 161.290 C 120.288 163.353,122.039 165.041,122.122 165.041 C 122.204 165.041,120.588 163.353,118.530 161.290 C 116.472 159.227,114.720 157.539,114.638 157.539 C 114.555 157.539,116.171 159.227,118.230 161.290 M305.476 159.490 C 306.036 160.068,306.562 160.540,306.644 160.540 C 306.727 160.540,306.336 160.068,305.776 159.490 C 305.217 158.912,304.691 158.440,304.608 158.440 C 304.526 158.440,304.916 158.912,305.476 159.490 M306.977 201.590 L 307.127 242.311 307.203 201.817 C 307.245 179.545,307.177 161.221,307.053 161.096 C 306.928 160.972,306.894 179.194,306.977 201.590 M170.538 168.078 C 168.258 170.078,165.818 172.267,165.116 172.942 L 163.841 174.168 163.841 200.804 L 163.841 227.439 169.297 232.249 L 174.754 237.059 200.560 237.059 L 226.367 237.059 231.413 232.045 L 236.459 227.030 236.459 218.091 L 236.459 209.152 229.863 209.152 L 223.267 209.152 223.186 216.279 L 223.106 223.406 200.225 223.483 L 177.344 223.560 177.344 200.750 L 177.344 177.941 200.225 178.018 L 223.106 178.095 223.188 183.271 L 223.270 188.447 229.865 188.447 L 236.459 188.447 236.459 181.459 L 236.459 174.471 231.413 169.456 L 226.367 164.441 200.526 164.441 L 174.685 164.441 170.538 168.078 M130.233 172.993 C 131.628 174.396,132.837 175.544,132.920 175.544 C 133.003 175.544,131.928 174.396,130.533 172.993 C 129.137 171.590,127.928 170.443,127.845 170.443 C 127.763 170.443,128.837 171.590,130.233 172.993 M139.460 175.769 C 142.967 175.817,148.706 175.817,152.213 175.769 C 155.720 175.721,152.851 175.681,145.836 175.681 C 138.822 175.681,135.953 175.721,139.460 175.769 M241.704 175.919 C 241.466 176.569,241.399 193.798,241.635 193.652 C 241.759 193.576,241.860 189.543,241.860 184.690 L 241.860 175.867 244.486 175.767 L 247.112 175.667 244.477 175.606 C 242.595 175.562,241.802 175.651,241.704 175.919 M182.806 183.406 C 182.398 183.814,182.265 217.707,182.671 217.958 C 182.794 218.035,182.896 210.312,182.896 200.797 L 182.896 183.496 200.300 183.496 L 217.704 183.496 217.865 188.597 L 218.027 193.698 218.091 188.732 C 218.136 185.194,218.051 183.662,217.794 183.406 C 217.275 182.886,183.326 182.886,182.806 183.406 M93.467 216.804 C 93.467 230.833,93.503 236.528,93.548 229.460 C 93.593 222.392,93.593 210.914,93.548 203.953 C 93.503 196.993,93.467 202.776,93.467 216.804 M154.079 208.702 C 154.079 218.275,154.117 222.234,154.163 217.501 C 154.210 212.768,154.210 204.936,154.163 200.096 C 154.117 195.257,154.079 199.130,154.079 208.702 M217.999 203.826 C 217.762 204.481,217.694 218.104,217.929 217.958 C 218.053 217.882,218.155 214.655,218.155 210.788 L 218.155 203.758 229.932 203.676 L 241.710 203.594 229.923 203.522 C 220.713 203.466,218.106 203.533,217.999 203.826 M241.705 215.004 L 241.710 226.107 244.261 226.124 L 246.812 226.142 244.340 226.037 L 241.868 225.933 241.783 214.917 L 241.699 203.901 241.705 215.004 M155.357 226.173 C 155.890 226.239,156.835 226.240,157.458 226.175 C 158.080 226.111,157.644 226.056,156.489 226.055 C 155.334 226.054,154.824 226.107,155.357 226.173 M97.374 246.062 C 99.350 248.042,101.033 249.662,101.116 249.662 C 101.198 249.662,99.650 248.042,97.674 246.062 C 95.699 244.081,94.015 242.461,93.933 242.461 C 93.850 242.461,95.399 244.081,97.374 246.062 M302.172 247.187 L 297.524 251.913 302.251 247.265 C 306.641 242.948,307.113 242.461,306.898 242.461 C 306.855 242.461,304.728 244.587,302.172 247.187 M108.327 256.714 C 110.385 258.777,112.137 260.465,112.219 260.465 C 112.302 260.465,110.685 258.777,108.627 256.714 C 106.569 254.651,104.818 252.963,104.735 252.963 C 104.653 252.963,106.269 254.651,108.327 256.714 M287.769 261.890 L 281.320 268.417 287.847 261.968 C 293.911 255.976,294.509 255.364,294.296 255.364 C 294.253 255.364,291.316 258.301,287.769 261.890 M117.925 265.941 C 121.685 269.774,122.131 270.203,122.131 269.988 C 122.131 269.945,120.274 268.088,118.005 265.862 L 113.878 261.815 117.925 265.941 M129.032 276.819 C 130.594 278.387,131.939 279.670,132.021 279.670 C 132.104 279.670,130.894 278.387,129.332 276.819 C 127.771 275.251,126.426 273.968,126.343 273.968 C 126.261 273.968,127.471 275.251,129.032 276.819 M272.310 277.644 L 270.218 279.820 272.393 277.727 C 274.414 275.784,274.706 275.469,274.486 275.469 C 274.440 275.469,273.461 276.448,272.310 277.644 M166.941 279.895 C 185.892 279.938,216.815 279.938,235.658 279.895 C 254.501 279.852,238.995 279.817,201.200 279.817 C 163.406 279.817,147.989 279.852,166.941 279.895 " stroke="none" fill="#cc1c24" fill-rule="evenodd"></path></g></svg>